<?xml version="1.0" encoding="utf-8"?>
<!-- Generator: Adobe Illustrator 19.2.1, SVG Export Plug-In . SVG Version: 6.00 Build 0)  -->
<svg version="1.1" id="Layer_1" xmlns="http://www.w3.org/2000/svg" xmlns:xlink="http://www.w3.org/1999/xlink" x="0px" y="0px"
	 viewBox="0 0 100 100" style="enable-background:new 0 0 100 100;" xml:space="preserve">
<style type="text/css">
	.st0{fill:url(#);}
</style>
<path d="M18.4,92.7V78.9c-0.2,0.1-0.5,0.2-0.7,0.2c-0.2,0.1-0.5,0.1-0.7,0.1c-0.3,0-0.6-0.1-0.8-0.3s-0.3-0.5-0.3-0.8
	c0-0.2,0.1-0.4,0.2-0.6c0.1-0.2,0.3-0.3,0.6-0.5l2.5-0.8c0.1-0.1,0.3-0.1,0.4-0.1c0.3,0,0.6,0.1,0.8,0.3c0.2,0.2,0.3,0.5,0.3,0.8
	v15.4c0,0.3-0.1,0.6-0.3,0.8c-0.2,0.2-0.5,0.3-0.8,0.3c-0.3,0-0.6-0.1-0.8-0.3C18.5,93.3,18.4,93,18.4,92.7z M22.3,85
	c0-1.4,0.1-2.6,0.4-3.7c0.2-1.1,0.6-2,1.1-2.8c0.5-0.8,1-1.3,1.7-1.7c0.7-0.4,1.4-0.6,2.3-0.6s1.6,0.2,2.3,0.6
	c0.7,0.4,1.2,1,1.7,1.8c0.5,0.8,0.8,1.7,1.1,2.8c0.2,1.1,0.4,2.3,0.4,3.7s-0.1,2.6-0.4,3.7c-0.2,1.1-0.6,2-1.1,2.8
	c-0.5,0.8-1,1.4-1.7,1.8c-0.7,0.4-1.4,0.6-2.3,0.6s-1.6-0.2-2.3-0.6c-0.7-0.4-1.2-1-1.7-1.7c-0.5-0.8-0.8-1.7-1.1-2.8
	C22.4,87.6,22.3,86.4,22.3,85z M27.7,78.5c-0.5,0-1,0.2-1.4,0.5c-0.4,0.3-0.7,0.8-1,1.4c-0.3,0.6-0.4,1.3-0.6,2.1
	c-0.1,0.8-0.2,1.7-0.2,2.6c0,0.9,0.1,1.8,0.2,2.6c0.1,0.8,0.3,1.5,0.6,2.1c0.3,0.6,0.6,1,1,1.4c0.4,0.3,0.8,0.5,1.4,0.5
	c0.5,0,1-0.2,1.4-0.5s0.7-0.8,1-1.4c0.3-0.6,0.4-1.3,0.6-2.1c0.1-0.8,0.2-1.7,0.2-2.6c0-0.9-0.1-1.8-0.2-2.6
	c-0.1-0.8-0.3-1.5-0.6-2.1s-0.6-1-1-1.4C28.7,78.6,28.2,78.5,27.7,78.5z M34.7,85c0-1.4,0.1-2.6,0.4-3.7c0.2-1.1,0.6-2,1.1-2.8
	c0.5-0.8,1-1.3,1.7-1.7c0.7-0.4,1.4-0.6,2.3-0.6s1.6,0.2,2.3,0.6c0.7,0.4,1.2,1,1.7,1.8c0.5,0.8,0.8,1.7,1.1,2.8
	c0.2,1.1,0.4,2.3,0.4,3.7s-0.1,2.6-0.4,3.7c-0.2,1.1-0.6,2-1.1,2.8c-0.5,0.8-1,1.4-1.7,1.8c-0.7,0.4-1.4,0.6-2.3,0.6
	s-1.6-0.2-2.3-0.6c-0.7-0.4-1.2-1-1.7-1.7c-0.5-0.8-0.8-1.7-1.1-2.8C34.8,87.6,34.7,86.4,34.7,85z M40.1,78.5c-0.5,0-1,0.2-1.4,0.5
	c-0.4,0.3-0.7,0.8-1,1.4c-0.3,0.6-0.4,1.3-0.6,2.1C37.1,83.2,37,84.1,37,85c0,0.9,0.1,1.8,0.2,2.6c0.1,0.8,0.3,1.5,0.6,2.1
	c0.3,0.6,0.6,1,1,1.4c0.4,0.3,0.8,0.5,1.4,0.5c0.5,0,1-0.2,1.4-0.5s0.7-0.8,1-1.4c0.3-0.6,0.4-1.3,0.6-2.1c0.1-0.8,0.2-1.7,0.2-2.6
	c0-0.9-0.1-1.8-0.2-2.6c-0.1-0.8-0.3-1.5-0.6-2.1s-0.6-1-1-1.4C41.1,78.6,40.6,78.5,40.1,78.5z M64.6,92.7c0,0.3-0.1,0.6-0.3,0.8
	c-0.2,0.2-0.5,0.3-0.8,0.3c-0.3,0-0.6-0.1-0.8-0.3c-0.2-0.2-0.3-0.5-0.3-0.8v-6.3c0-0.4-0.1-0.7-0.2-1s-0.3-0.6-0.6-0.8
	c-0.2-0.2-0.5-0.4-0.8-0.6c-0.3-0.1-0.7-0.2-1-0.2c-0.4,0-0.7,0.1-1,0.2s-0.6,0.3-0.8,0.6s-0.4,0.5-0.6,0.8s-0.2,0.7-0.2,1v6.3
	c0,0.3-0.1,0.6-0.3,0.8c-0.2,0.2-0.5,0.3-0.8,0.3c-0.3,0-0.6-0.1-0.8-0.3c-0.2-0.2-0.3-0.5-0.3-0.8v-6.3c0-0.4-0.1-0.7-0.2-1
	c-0.1-0.3-0.3-0.6-0.6-0.8s-0.5-0.4-0.8-0.6s-0.7-0.2-1-0.2s-0.7,0.1-1,0.2c-0.3,0.1-0.6,0.3-0.8,0.6c-0.2,0.2-0.4,0.5-0.6,0.8
	c-0.1,0.3-0.2,0.7-0.2,1v6.3c0,0.3-0.1,0.6-0.3,0.8c-0.2,0.2-0.5,0.3-0.8,0.3c-0.3,0-0.6-0.1-0.8-0.3c-0.2-0.2-0.3-0.5-0.3-0.8V82.6
	c0-0.3,0.1-0.6,0.3-0.8c0.2-0.2,0.5-0.3,0.8-0.3c0.3,0,0.5,0.1,0.7,0.2c0.2,0.1,0.3,0.3,0.4,0.6c0.8-0.5,1.7-0.8,2.7-0.8
	c0.7,0,1.4,0.1,2.1,0.4c0.6,0.3,1.2,0.7,1.7,1.3c1-1.2,2.3-1.8,3.8-1.8c0.7,0,1.3,0.1,1.9,0.4c0.6,0.3,1.1,0.6,1.6,1.1
	c0.4,0.4,0.8,1,1.1,1.6c0.3,0.6,0.4,1.2,0.4,1.9V92.7z M84.1,92.7c0,0.3-0.1,0.6-0.3,0.8c-0.2,0.2-0.5,0.3-0.8,0.3
	c-0.3,0-0.6-0.1-0.8-0.3c-0.2-0.2-0.3-0.5-0.3-0.8v-6.3c0-0.4-0.1-0.7-0.2-1s-0.3-0.6-0.6-0.8c-0.2-0.2-0.5-0.4-0.8-0.6
	c-0.3-0.1-0.7-0.2-1-0.2c-0.4,0-0.7,0.1-1,0.2s-0.6,0.3-0.8,0.6s-0.4,0.5-0.6,0.8s-0.2,0.7-0.2,1v6.3c0,0.3-0.1,0.6-0.3,0.8
	c-0.2,0.2-0.5,0.3-0.8,0.3c-0.3,0-0.6-0.1-0.8-0.3c-0.2-0.2-0.3-0.5-0.3-0.8v-6.3c0-0.4-0.1-0.7-0.2-1c-0.1-0.3-0.3-0.6-0.6-0.8
	s-0.5-0.4-0.8-0.6s-0.7-0.2-1-0.2s-0.7,0.1-1,0.2c-0.3,0.1-0.6,0.3-0.8,0.6c-0.2,0.2-0.4,0.5-0.6,0.8C69,85.7,69,86,69,86.4v6.3
	c0,0.3-0.1,0.6-0.3,0.8c-0.2,0.2-0.5,0.3-0.8,0.3c-0.3,0-0.6-0.1-0.8-0.3c-0.2-0.2-0.3-0.5-0.3-0.8V82.6c0-0.3,0.1-0.6,0.3-0.8
	c0.2-0.2,0.5-0.3,0.8-0.3c0.3,0,0.5,0.1,0.7,0.2c0.2,0.1,0.3,0.3,0.4,0.6c0.8-0.5,1.7-0.8,2.7-0.8c0.7,0,1.4,0.1,2.1,0.4
	c0.6,0.3,1.2,0.7,1.7,1.3c1-1.2,2.3-1.8,3.8-1.8c0.7,0,1.3,0.1,1.9,0.4c0.6,0.3,1.1,0.6,1.6,1.1c0.4,0.4,0.8,1,1.1,1.6
	c0.3,0.6,0.4,1.2,0.4,1.9V92.7z M66.3,48.6v2.8c0,0.8-0.2,1.4-0.7,2c-0.5,0.6-1.1,0.8-1.9,0.8H48.1l6.5,6.5c0.6,0.5,0.8,1.2,0.8,2
	s-0.3,1.5-0.8,2l-1.7,1.7c-0.5,0.5-1.2,0.8-2,0.8c-0.8,0-1.4-0.3-2-0.8L34.5,52c-0.5-0.5-0.8-1.2-0.8-2c0-0.8,0.3-1.4,0.8-2
	l14.4-14.4c0.6-0.6,1.2-0.8,2-0.8c0.8,0,1.4,0.3,2,0.8l1.7,1.6c0.6,0.6,0.8,1.2,0.8,2c0,0.8-0.3,1.5-0.8,2l-6.5,6.5h15.6
	c0.8,0,1.4,0.3,1.9,0.8S66.3,47.8,66.3,48.6z M38,25.6c-0.3,0.3-0.6,0.4-1,0.4c-0.4,0-0.8-0.1-1-0.4c-0.3-0.3-0.4-0.6-0.4-1
	c0-0.4,0.1-0.7,0.3-0.9l6.8-8.7l-6.8-8.7c-0.2-0.2-0.3-0.5-0.3-0.9c0-0.4,0.1-0.8,0.4-1c0.3-0.3,0.6-0.4,1-0.4c0.4,0,0.8,0.1,1,0.4
	l6.4,8.2l6.4-8.2c0.3-0.3,0.6-0.4,1-0.4c0.4,0,0.7,0.1,1,0.4c0.3,0.3,0.4,0.6,0.4,1c0,0.3-0.1,0.6-0.3,0.9L46.3,15l6.8,8.7
	c0.2,0.3,0.3,0.6,0.3,0.9c0,0.4-0.1,0.7-0.4,1c-0.3,0.3-0.6,0.4-1,0.4c-0.5,0-0.9-0.2-1.1-0.5l-6.3-8.2L38,25.6z M56.8,16.4
	c-0.4,0-0.8-0.1-1-0.4s-0.4-0.6-0.4-1s0.1-0.8,0.4-1c0.3-0.3,0.6-0.4,1-0.4h6.3c0.4,0,0.8,0.1,1,0.4c0.3,0.3,0.4,0.6,0.4,1
	s-0.1,0.8-0.4,1c-0.3,0.3-0.6,0.4-1,0.4H56.8z"/>
</svg>
