<?xml version="1.0" encoding="utf-8"?>
<!-- Generator: Adobe Illustrator 19.2.1, SVG Export Plug-In . SVG Version: 6.00 Build 0)  -->
<svg version="1.1" id="Layer_1" xmlns="http://www.w3.org/2000/svg" xmlns:xlink="http://www.w3.org/1999/xlink" x="0px" y="0px"
	 viewBox="0 0 100 100" style="enable-background:new 0 0 100 100;" xml:space="preserve">
<style type="text/css">
	.st0{fill:none;}
	.st1{fill:url(#New_Pattern_Swatch_2);}
	.st2{fill:url(#SVGID_1_);}
	.st3{fill:url(#SVGID_2_);}
	.st4{fill:url(#SVGID_3_);}
	.st5{fill:url(#SVGID_4_);}
	.st6{fill:url(#SVGID_5_);}
	.st7{fill:url(#SVGID_6_);}
	.st8{fill:url(#SVGID_7_);}
	.st9{fill:url(#SVGID_8_);}
	.st10{fill:url(#SVGID_9_);}
	.st11{fill:url(#SVGID_10_);}
	.st12{fill:url(#SVGID_11_);}
	.st13{fill:url(#SVGID_12_);}
	.st14{fill:url(#SVGID_13_);}
	.st15{fill:url(#SVGID_14_);}
	.st16{fill:url(#SVGID_15_);}
	.st17{fill:url(#SVGID_16_);}
</style>
<pattern  y="-100" width="56.7" height="56.7" patternUnits="userSpaceOnUse" id="New_Pattern_Swatch_2" viewBox="0 -56.7 56.7 56.7" style="overflow:visible;">
	<g>
		<rect y="-56.7" class="st0" width="56.7" height="56.7"/>
		<rect x="0" y="-56.7" width="56.7" height="56.7"/>
	</g>
</pattern>
<pattern  id="SVGID_1_" xlink:href="#New_Pattern_Swatch_2" patternTransform="matrix(1 0 0 1 0 43.3071)">
</pattern>
<path class="st2" d="M66.3,48.6v2.8c0,0.8-0.2,1.4-0.7,2c-0.5,0.6-1.1,0.8-1.9,0.8H48.1l6.5,6.5c0.6,0.5,0.8,1.2,0.8,2
	s-0.3,1.5-0.8,2l-1.7,1.7c-0.5,0.5-1.2,0.8-2,0.8c-0.8,0-1.4-0.3-2-0.8L34.5,52c-0.5-0.5-0.8-1.2-0.8-2c0-0.8,0.3-1.4,0.8-2
	l14.4-14.4c0.6-0.6,1.2-0.8,2-0.8c0.8,0,1.4,0.3,2,0.8l1.7,1.6c0.6,0.6,0.8,1.2,0.8,2c0,0.8-0.3,1.5-0.8,2l-6.5,6.5h15.6
	c0.8,0,1.4,0.3,1.9,0.8S66.3,47.8,66.3,48.6z M38,25.6c-0.3,0.3-0.6,0.4-1,0.4c-0.4,0-0.8-0.1-1-0.4c-0.3-0.3-0.4-0.6-0.4-1
	c0-0.4,0.1-0.7,0.3-0.9l6.8-8.7l-6.8-8.7c-0.2-0.2-0.3-0.5-0.3-0.9c0-0.4,0.1-0.8,0.4-1c0.3-0.3,0.6-0.4,1-0.4c0.4,0,0.8,0.1,1,0.4
	l6.4,8.2l6.4-8.2c0.3-0.3,0.6-0.4,1-0.4c0.4,0,0.7,0.1,1,0.4c0.3,0.3,0.4,0.6,0.4,1c0,0.3-0.1,0.6-0.3,0.9L46.3,15l6.8,8.7
	c0.2,0.3,0.3,0.6,0.3,0.9c0,0.4-0.1,0.7-0.4,1c-0.3,0.3-0.6,0.4-1,0.4c-0.5,0-0.9-0.2-1.1-0.5l-6.3-8.2L38,25.6z M56.8,16.4
	c-0.4,0-0.8-0.1-1-0.4s-0.4-0.6-0.4-1s0.1-0.8,0.4-1c0.3-0.3,0.6-0.4,1-0.4h6.3c0.4,0,0.8,0.1,1,0.4c0.3,0.3,0.4,0.6,0.4,1
	s-0.1,0.8-0.4,1c-0.3,0.3-0.6,0.4-1,0.4H56.8z M30.8,92.7V78.9c-0.2,0.1-0.5,0.2-0.7,0.2c-0.2,0.1-0.5,0.1-0.7,0.1
	c-0.3,0-0.6-0.1-0.8-0.3s-0.3-0.5-0.3-0.8c0-0.2,0.1-0.4,0.2-0.6c0.1-0.2,0.3-0.3,0.6-0.5l2.5-0.8c0.1-0.1,0.3-0.1,0.4-0.1
	c0.3,0,0.6,0.1,0.8,0.3s0.3,0.5,0.3,0.8v15.4c0,0.3-0.1,0.6-0.3,0.8c-0.2,0.2-0.5,0.3-0.8,0.3c-0.3,0-0.6-0.1-0.8-0.3
	C30.9,93.3,30.8,93,30.8,92.7z M52.2,92.7c0,0.3-0.1,0.6-0.3,0.8c-0.2,0.2-0.5,0.3-0.8,0.3c-0.3,0-0.6-0.1-0.8-0.3
	c-0.2-0.2-0.3-0.5-0.3-0.8v-6.3c0-0.4-0.1-0.7-0.2-1s-0.3-0.6-0.6-0.8c-0.2-0.2-0.5-0.4-0.8-0.6c-0.3-0.1-0.7-0.2-1-0.2
	c-0.4,0-0.7,0.1-1,0.2s-0.6,0.3-0.8,0.6s-0.4,0.5-0.6,0.8s-0.2,0.7-0.2,1v6.3c0,0.3-0.1,0.6-0.3,0.8c-0.2,0.2-0.5,0.3-0.8,0.3
	c-0.3,0-0.6-0.1-0.8-0.3c-0.2-0.2-0.3-0.5-0.3-0.8v-6.3c0-0.4-0.1-0.7-0.2-1c-0.1-0.3-0.3-0.6-0.6-0.8S41,84.1,40.7,84
	s-0.7-0.2-1-0.2s-0.7,0.1-1,0.2s-0.6,0.3-0.8,0.6c-0.2,0.2-0.4,0.5-0.6,0.8c-0.1,0.3-0.2,0.7-0.2,1v6.3c0,0.3-0.1,0.6-0.3,0.8
	c-0.2,0.2-0.5,0.3-0.8,0.3c-0.3,0-0.6-0.1-0.8-0.3c-0.2-0.2-0.3-0.5-0.3-0.8V82.6c0-0.3,0.1-0.6,0.3-0.8c0.2-0.2,0.5-0.3,0.8-0.3
	c0.3,0,0.5,0.1,0.7,0.2s0.3,0.3,0.4,0.6c0.8-0.5,1.7-0.8,2.7-0.8c0.7,0,1.4,0.1,2.1,0.4c0.6,0.3,1.2,0.7,1.7,1.3
	c1-1.2,2.3-1.8,3.8-1.8c0.7,0,1.3,0.1,1.9,0.4c0.6,0.3,1.1,0.6,1.6,1.1c0.4,0.4,0.8,1,1.1,1.6c0.3,0.6,0.4,1.2,0.4,1.9V92.7z
	 M71.7,92.7c0,0.3-0.1,0.6-0.3,0.8c-0.2,0.2-0.5,0.3-0.8,0.3c-0.3,0-0.6-0.1-0.8-0.3c-0.2-0.2-0.3-0.5-0.3-0.8v-6.3
	c0-0.4-0.1-0.7-0.2-1s-0.3-0.6-0.6-0.8c-0.2-0.2-0.5-0.4-0.8-0.6c-0.3-0.1-0.7-0.2-1-0.2c-0.4,0-0.7,0.1-1,0.2s-0.6,0.3-0.8,0.6
	s-0.4,0.5-0.6,0.8s-0.2,0.7-0.2,1v6.3c0,0.3-0.1,0.6-0.3,0.8c-0.2,0.2-0.5,0.3-0.8,0.3c-0.3,0-0.6-0.1-0.8-0.3
	c-0.2-0.2-0.3-0.5-0.3-0.8v-6.3c0-0.4-0.1-0.7-0.2-1c-0.1-0.3-0.3-0.6-0.6-0.8s-0.5-0.4-0.8-0.6s-0.7-0.2-1-0.2s-0.7,0.1-1,0.2
	s-0.6,0.3-0.8,0.6c-0.2,0.2-0.4,0.5-0.6,0.8c-0.1,0.3-0.2,0.7-0.2,1v6.3c0,0.3-0.1,0.6-0.3,0.8c-0.2,0.2-0.5,0.3-0.8,0.3
	c-0.3,0-0.6-0.1-0.8-0.3c-0.2-0.2-0.3-0.5-0.3-0.8V82.6c0-0.3,0.1-0.6,0.3-0.8c0.2-0.2,0.5-0.3,0.8-0.3c0.3,0,0.5,0.1,0.7,0.2
	s0.3,0.3,0.4,0.6c0.8-0.5,1.7-0.8,2.7-0.8c0.7,0,1.4,0.1,2.1,0.4c0.6,0.3,1.2,0.7,1.7,1.3c1-1.2,2.3-1.8,3.8-1.8
	c0.7,0,1.3,0.1,1.9,0.4c0.6,0.3,1.1,0.6,1.6,1.1c0.4,0.4,0.8,1,1.1,1.6c0.3,0.6,0.4,1.2,0.4,1.9V92.7z"/>
</svg>
