<?xml version="1.0" encoding="utf-8"?>
<!-- Generator: Adobe Illustrator 19.2.1, SVG Export Plug-In . SVG Version: 6.00 Build 0)  -->
<svg version="1.1" id="Layer_1" xmlns="http://www.w3.org/2000/svg" xmlns:xlink="http://www.w3.org/1999/xlink" x="0px" y="0px"
	 viewBox="0 0 100 100" style="enable-background:new 0 0 100 100;" xml:space="preserve">
<path d="M78.3,50c0,0.5-0.2,1-0.6,1.4l-8.1,8.1c-0.4,0.4-0.9,0.6-1.4,0.6c-0.5,0-1-0.2-1.4-0.6s-0.6-0.9-0.6-1.4v-4H33.8v4
	c0,0.5-0.2,1-0.6,1.4c-0.4,0.4-0.9,0.6-1.4,0.6c-0.5,0-1-0.2-1.4-0.6l-8.1-8.1c-0.4-0.4-0.6-0.9-0.6-1.4c0-0.5,0.2-1,0.6-1.4
	l8.1-8.1c0.4-0.4,0.9-0.6,1.4-0.6c0.5,0,1,0.2,1.4,0.6c0.4,0.4,0.6,0.9,0.6,1.4v4h32.4v-4c0-0.5,0.2-1,0.6-1.4
	c0.4-0.4,0.9-0.6,1.4-0.6c0.5,0,1,0.2,1.4,0.6l8.1,8.1C78.1,49,78.3,49.5,78.3,50z M15.6,8.7v14c0,0.9-0.2,1.8-0.5,2.6
	c-0.4,0.8-0.8,1.5-1.4,2.1c-0.6,0.6-1.3,1.1-2.1,1.4c-0.8,0.4-1.7,0.5-2.6,0.5c-0.4,0-0.8-0.1-1-0.4c-0.3-0.3-0.4-0.6-0.4-1
	c0-0.4,0.1-0.8,0.4-1c0.3-0.3,0.6-0.4,1-0.4c0.5,0,1-0.1,1.5-0.3s0.9-0.5,1.2-0.8c0.3-0.3,0.6-0.8,0.8-1.2s0.3-1,0.3-1.5v-14
	c0-0.4,0.1-0.7,0.4-1c0.3-0.3,0.6-0.4,1-0.4c0.4,0,0.7,0.1,1,0.4C15.5,8,15.6,8.3,15.6,8.7z M15.9,4.5c0,0.5-0.2,0.9-0.5,1.2
	s-0.7,0.5-1.2,0.5S13.3,6,13,5.7c-0.3-0.3-0.5-0.7-0.5-1.2s0.2-0.9,0.5-1.2c0.3-0.3,0.7-0.5,1.2-0.5S15,3,15.4,3.3S15.9,4,15.9,4.5z
	 M33.2,15c0,2.2-0.8,4-2.3,5.5c-1.5,1.5-3.4,2.3-5.5,2.3c-2.1,0-4-0.8-5.5-2.3c-1.5-1.5-2.3-3.3-2.3-5.5s0.8-4,2.3-5.5
	c1.5-1.5,3.3-2.3,5.5-2.3c2.1,0,3.9,0.8,5.5,2.3c0.8,0.8,1.3,1.6,1.7,2.5C33,12.9,33.2,13.9,33.2,15z M25.5,10.1
	c-0.7,0-1.3,0.1-1.9,0.4c-0.6,0.3-1.1,0.6-1.5,1c-0.4,0.4-0.8,1-1,1.5c-0.3,0.6-0.4,1.2-0.4,1.9s0.1,1.3,0.4,1.9
	c0.3,0.6,0.6,1.1,1,1.5c0.4,0.4,0.9,0.8,1.5,1c0.6,0.3,1.2,0.4,1.9,0.4c0.7,0,1.3-0.1,1.9-0.4s1.1-0.6,1.5-1.1c0.4-0.4,0.8-1,1-1.5
	s0.4-1.2,0.4-1.9s-0.1-1.3-0.4-1.9s-0.6-1.1-1-1.5c-0.4-0.4-1-0.8-1.5-1.1S26.1,10.1,25.5,10.1z M48,21c-1.4,1.1-3,1.7-4.9,1.7
	c-2.1,0-4-0.8-5.5-2.3c-1.5-1.5-2.3-3.3-2.3-5.5s0.8-4,2.3-5.5C39.2,8,41,7.2,43.2,7.2c2.1,0,3.9,0.8,5.5,2.3
	c1.5,1.5,2.3,3.3,2.3,5.5v7.7c0,0.7-0.1,1.3-0.3,1.9c-0.2,0.6-0.5,1.1-0.8,1.6c-0.4,0.5-0.8,0.9-1.3,1.3c-0.5,0.4-1,0.7-1.6,1
	c-0.6,0.3-1.2,0.5-1.8,0.6c-0.6,0.1-1.2,0.2-1.9,0.2c-0.7,0-1.5-0.1-2.2-0.3s-1.4-0.5-2-0.8s-1.2-0.8-1.8-1.4
	c-0.5-0.5-1-1.2-1.3-1.8c-0.1-0.2-0.2-0.5-0.2-0.8c0-0.4,0.1-0.8,0.4-1c0.3-0.3,0.6-0.4,1-0.4c0.3,0,0.5,0.1,0.7,0.2
	c0.2,0.1,0.4,0.4,0.7,0.9s0.6,0.8,0.8,1c1.1,1.1,2.3,1.6,3.8,1.6c1.5,0,2.8-0.5,3.8-1.6c0.6-0.8,1-1.5,1-2.3V21z M43.2,10.1
	c-0.7,0-1.3,0.1-1.9,0.4s-1.1,0.6-1.5,1c-0.4,0.4-0.8,1-1,1.5s-0.4,1.2-0.4,1.9s0.1,1.3,0.4,1.9c0.3,0.6,0.6,1.1,1,1.5
	c0.4,0.4,0.9,0.8,1.5,1s1.2,0.4,1.9,0.4c0.7,0,1.3-0.1,1.9-0.4c0.6-0.3,1.1-0.6,1.5-1.1c0.4-0.4,0.8-1,1-1.5S48,15.7,48,15
	s-0.1-1.3-0.4-1.9s-0.6-1.1-1-1.5s-1-0.8-1.5-1.1C44.5,10.3,43.9,10.1,43.2,10.1z M64.3,9c1.4-1.1,3-1.7,4.9-1.7
	c2.1,0,3.9,0.8,5.5,2.3c0.8,0.7,1.3,1.6,1.7,2.5c0.4,0.9,0.6,1.9,0.6,3c0,2.2-0.8,4-2.3,5.5c-1.5,1.5-3.4,2.3-5.5,2.3
	c-2.1,0-4-0.8-5.5-2.3c-1.5-1.5-2.3-3.3-2.3-5.5V2c0-0.4,0.1-0.8,0.4-1c0.3-0.3,0.6-0.4,1-0.4c0.4,0,0.7,0.1,1,0.4
	c0.3,0.3,0.4,0.6,0.4,1V9z M69.2,19.9c0.7,0,1.3-0.1,1.9-0.4c0.6-0.3,1.1-0.6,1.5-1.1c0.4-0.4,0.8-1,1-1.5s0.4-1.2,0.4-1.9
	s-0.1-1.3-0.4-1.9s-0.6-1.1-1-1.5s-1-0.8-1.5-1.1c-0.6-0.3-1.2-0.4-1.9-0.4c-0.7,0-1.3,0.1-1.9,0.4s-1.1,0.6-1.5,1
	c-0.4,0.4-0.8,1-1,1.5s-0.4,1.2-0.4,1.9s0.1,1.3,0.4,1.9c0.3,0.6,0.6,1.1,1,1.5c0.4,0.4,0.9,0.8,1.5,1S68.5,19.9,69.2,19.9z
	 M84.3,21.3l-5-12c-0.1-0.2-0.1-0.4-0.1-0.7c0-0.2,0-0.4,0.1-0.6c0.1-0.2,0.2-0.3,0.3-0.5c0.1-0.1,0.3-0.2,0.5-0.3
	c0.2-0.1,0.4-0.1,0.6-0.1c0.3,0,0.6,0.1,0.8,0.2c0.2,0.2,0.4,0.4,0.6,0.7l3.9,9.3l3.9-9.3c0.1-0.3,0.3-0.5,0.5-0.7
	c0.2-0.2,0.5-0.3,0.9-0.3c0.2,0,0.4,0,0.6,0.1s0.3,0.2,0.5,0.3c0.1,0.1,0.2,0.3,0.3,0.5c0.1,0.2,0.1,0.4,0.1,0.6
	c0,0.2-0.1,0.4-0.2,0.7l-8,19.1c-0.1,0.3-0.3,0.5-0.6,0.7c-0.2,0.2-0.5,0.3-0.8,0.3c-0.4,0-0.8-0.1-1-0.4c-0.3-0.3-0.4-0.6-0.4-1
	c0-0.2,0-0.4,0.1-0.6L84.3,21.3z M20,85c0-1.4,0.1-2.6,0.4-3.7c0.2-1.1,0.6-2,1.1-2.8c0.5-0.8,1-1.3,1.7-1.7s1.4-0.6,2.3-0.6
	s1.6,0.2,2.3,0.6c0.7,0.4,1.2,1,1.7,1.8c0.5,0.8,0.8,1.7,1.1,2.8c0.2,1.1,0.4,2.3,0.4,3.7s-0.1,2.6-0.4,3.7c-0.2,1.1-0.6,2-1.1,2.8
	c-0.5,0.8-1,1.4-1.7,1.8c-0.7,0.4-1.4,0.6-2.3,0.6s-1.6-0.2-2.3-0.6s-1.2-1-1.7-1.7c-0.5-0.8-0.8-1.7-1.1-2.8
	C20.1,87.6,20,86.4,20,85z M25.4,78.5c-0.5,0-1,0.2-1.4,0.5c-0.4,0.3-0.7,0.8-1,1.4c-0.3,0.6-0.4,1.3-0.6,2.1s-0.2,1.7-0.2,2.6
	c0,0.9,0.1,1.8,0.2,2.6c0.1,0.8,0.3,1.5,0.6,2.1s0.6,1,1,1.4c0.4,0.3,0.8,0.5,1.4,0.5c0.5,0,1-0.2,1.4-0.5c0.4-0.3,0.7-0.8,1-1.4
	c0.3-0.6,0.4-1.3,0.6-2.1c0.1-0.8,0.2-1.7,0.2-2.6c0-0.9-0.1-1.8-0.2-2.6c-0.1-0.8-0.3-1.5-0.6-2.1s-0.6-1-1-1.4
	C26.4,78.6,25.9,78.5,25.4,78.5z M35.3,92.3c0,0.4-0.2,0.8-0.5,1.1c-0.3,0.3-0.7,0.5-1.1,0.5s-0.8-0.2-1.1-0.5
	c-0.3-0.3-0.5-0.7-0.5-1.1s0.2-0.8,0.5-1.1c0.3-0.3,0.7-0.5,1.1-0.5s0.8,0.2,1.1,0.5C35.2,91.5,35.3,91.9,35.3,92.3z M39.1,92.7
	V78.9c-0.2,0.1-0.5,0.2-0.7,0.2c-0.2,0.1-0.5,0.1-0.7,0.1c-0.3,0-0.6-0.1-0.8-0.3s-0.3-0.5-0.3-0.8c0-0.2,0.1-0.4,0.2-0.6
	c0.1-0.2,0.3-0.3,0.6-0.5l2.5-0.8c0.1-0.1,0.3-0.1,0.4-0.1c0.3,0,0.6,0.1,0.8,0.3c0.2,0.2,0.3,0.5,0.3,0.8v15.4
	c0,0.3-0.1,0.6-0.3,0.8c-0.2,0.2-0.5,0.3-0.8,0.3c-0.3,0-0.6-0.1-0.8-0.3C39.2,93.3,39.1,93,39.1,92.7z M60.5,92.7
	c0,0.3-0.1,0.6-0.3,0.8c-0.2,0.2-0.5,0.3-0.8,0.3c-0.3,0-0.6-0.1-0.8-0.3c-0.2-0.2-0.3-0.5-0.3-0.8v-6.3c0-0.4-0.1-0.7-0.2-1
	s-0.3-0.6-0.6-0.8c-0.2-0.2-0.5-0.4-0.8-0.6c-0.3-0.1-0.7-0.2-1-0.2c-0.4,0-0.7,0.1-1,0.2s-0.6,0.3-0.8,0.6s-0.4,0.5-0.6,0.8
	S53,86,53,86.4v6.3c0,0.3-0.1,0.6-0.3,0.8c-0.2,0.2-0.5,0.3-0.8,0.3c-0.3,0-0.6-0.1-0.8-0.3c-0.2-0.2-0.3-0.5-0.3-0.8v-6.3
	c0-0.4-0.1-0.7-0.2-1c-0.1-0.3-0.3-0.6-0.6-0.8s-0.5-0.4-0.8-0.6s-0.7-0.2-1-0.2s-0.7,0.1-1,0.2c-0.3,0.1-0.6,0.3-0.8,0.6
	c-0.2,0.2-0.4,0.5-0.6,0.8c-0.1,0.3-0.2,0.7-0.2,1v6.3c0,0.3-0.1,0.6-0.3,0.8c-0.2,0.2-0.5,0.3-0.8,0.3c-0.3,0-0.6-0.1-0.8-0.3
	c-0.2-0.2-0.3-0.5-0.3-0.8V82.6c0-0.3,0.1-0.6,0.3-0.8c0.2-0.2,0.5-0.3,0.8-0.3c0.3,0,0.5,0.1,0.7,0.2c0.2,0.1,0.3,0.3,0.4,0.6
	c0.8-0.5,1.7-0.8,2.7-0.8c0.7,0,1.4,0.1,2.1,0.4c0.6,0.3,1.2,0.7,1.7,1.3c1-1.2,2.3-1.8,3.8-1.8c0.7,0,1.3,0.1,1.9,0.4
	c0.6,0.3,1.1,0.6,1.6,1.1c0.4,0.4,0.8,1,1.1,1.6c0.3,0.6,0.4,1.2,0.4,1.9V92.7z M80,92.7c0,0.3-0.1,0.6-0.3,0.8
	c-0.2,0.2-0.5,0.3-0.8,0.3c-0.3,0-0.6-0.1-0.8-0.3c-0.2-0.2-0.3-0.5-0.3-0.8v-6.3c0-0.4-0.1-0.7-0.2-1s-0.3-0.6-0.6-0.8
	c-0.2-0.2-0.5-0.4-0.8-0.6c-0.3-0.1-0.7-0.2-1-0.2c-0.4,0-0.7,0.1-1,0.2s-0.6,0.3-0.8,0.6s-0.4,0.5-0.6,0.8s-0.2,0.7-0.2,1v6.3
	c0,0.3-0.1,0.6-0.3,0.8c-0.2,0.2-0.5,0.3-0.8,0.3c-0.3,0-0.6-0.1-0.8-0.3c-0.2-0.2-0.3-0.5-0.3-0.8v-6.3c0-0.4-0.1-0.7-0.2-1
	c-0.1-0.3-0.3-0.6-0.6-0.8s-0.5-0.4-0.8-0.6s-0.7-0.2-1-0.2s-0.7,0.1-1,0.2c-0.3,0.1-0.6,0.3-0.8,0.6c-0.2,0.2-0.4,0.5-0.6,0.8
	c-0.1,0.3-0.2,0.7-0.2,1v6.3c0,0.3-0.1,0.6-0.3,0.8c-0.2,0.2-0.5,0.3-0.8,0.3c-0.3,0-0.6-0.1-0.8-0.3c-0.2-0.2-0.3-0.5-0.3-0.8V82.6
	c0-0.3,0.1-0.6,0.3-0.8c0.2-0.2,0.5-0.3,0.8-0.3c0.3,0,0.5,0.1,0.7,0.2c0.2,0.1,0.3,0.3,0.4,0.6c0.8-0.5,1.7-0.8,2.7-0.8
	c0.7,0,1.4,0.1,2.1,0.4c0.6,0.3,1.2,0.7,1.7,1.3c1-1.2,2.3-1.8,3.8-1.8c0.7,0,1.3,0.1,1.9,0.4c0.6,0.3,1.1,0.6,1.6,1.1
	c0.4,0.4,0.8,1,1.1,1.6c0.3,0.6,0.4,1.2,0.4,1.9V92.7z"/>
</svg>
