<?xml version="1.0" encoding="utf-8"?>
<!-- Generator: Adobe Illustrator 19.2.1, SVG Export Plug-In . SVG Version: 6.00 Build 0)  -->
<svg version="1.1" id="Layer_1" xmlns="http://www.w3.org/2000/svg" xmlns:xlink="http://www.w3.org/1999/xlink" x="0px" y="0px"
	 viewBox="0 0 100 100" style="enable-background:new 0 0 100 100;" xml:space="preserve">
<style type="text/css">
	.st0{fill:none;}
	.st1{fill:url(#New_Pattern_Swatch_2);}
	.st2{fill:url(#SVGID_1_);}
	.st3{fill:url(#SVGID_2_);}
	.st4{fill:url(#SVGID_3_);}
	.st5{fill:url(#SVGID_4_);}
	.st6{fill:url(#SVGID_5_);}
	.st7{fill:url(#SVGID_6_);}
	.st8{fill:url(#SVGID_7_);}
	.st9{fill:url(#SVGID_8_);}
	.st10{fill:url(#SVGID_9_);}
	.st11{fill:url(#SVGID_10_);}
	.st12{fill:url(#SVGID_11_);}
	.st13{fill:url(#SVGID_12_);}
	.st14{fill:url(#SVGID_13_);}
	.st15{fill:url(#SVGID_14_);}
	.st16{fill:url(#SVGID_15_);}
	.st17{fill:url(#SVGID_16_);}
</style>
<pattern  x="-300" y="-100" width="56.7" height="56.7" patternUnits="userSpaceOnUse" id="New_Pattern_Swatch_2" viewBox="0 -56.7 56.7 56.7" style="overflow:visible;">
	<g>
		<rect y="-56.7" class="st0" width="56.7" height="56.7"/>
		<rect x="0" y="-56.7" width="56.7" height="56.7"/>
	</g>
</pattern>
<pattern  id="SVGID_1_" xlink:href="#New_Pattern_Swatch_2" patternTransform="matrix(1 0 0 1 0 43.3071)">
</pattern>
<path class="st2" d="M67.3,49.2c0,0.8-0.3,1.4-0.8,2L52,65.6c-0.6,0.5-1.2,0.8-2,0.8c-0.8,0-1.4-0.3-2-0.8L33.6,51.2
	c-0.6-0.5-0.8-1.2-0.8-2c0-0.8,0.3-1.5,0.8-2l1.6-1.7c0.6-0.5,1.2-0.8,2-0.8c0.8,0,1.4,0.3,2,0.8l6.5,6.5V36.4c0-0.8,0.3-1.4,0.8-2
	c0.6-0.6,1.2-0.8,2-0.8h2.8c0.8,0,1.4,0.3,2,0.8c0.6,0.6,0.8,1.2,0.8,2V52l6.5-6.5c0.5-0.5,1.2-0.8,2-0.8c0.8,0,1.4,0.3,2,0.8
	l1.7,1.7C67,47.7,67.3,48.4,67.3,49.2z M39.2,4.5l5.2,7.8l5.2-7.8c0.3-0.4,0.7-0.6,1.2-0.6c0.4,0,0.7,0.1,1,0.4
	c0.3,0.3,0.4,0.6,0.4,1c0,0.3-0.1,0.6-0.2,0.8l-6.2,9.2v9.2c0,0.4-0.1,0.8-0.4,1c-0.3,0.3-0.6,0.4-1,0.4c-0.4,0-0.7-0.1-1-0.4
	c-0.3-0.3-0.4-0.6-0.4-1v-9.2l-6.2-9.2c-0.2-0.2-0.2-0.5-0.2-0.8c0-0.4,0.1-0.8,0.4-1c0.3-0.3,0.6-0.4,1-0.4
	C38.5,3.9,38.9,4.1,39.2,4.5z M55.7,16.4c-0.4,0-0.8-0.1-1-0.4s-0.4-0.6-0.4-1s0.1-0.8,0.4-1c0.3-0.3,0.6-0.4,1-0.4H62
	c0.4,0,0.8,0.1,1,0.4c0.3,0.3,0.4,0.6,0.4,1s-0.1,0.8-0.4,1c-0.3,0.3-0.6,0.4-1,0.4H55.7z M30.8,92.7V78.9c-0.2,0.1-0.5,0.2-0.7,0.2
	c-0.2,0.1-0.5,0.1-0.7,0.1c-0.3,0-0.6-0.1-0.8-0.3s-0.3-0.5-0.3-0.8c0-0.2,0.1-0.4,0.2-0.6c0.1-0.2,0.3-0.3,0.6-0.5l2.5-0.8
	c0.1-0.1,0.3-0.1,0.4-0.1c0.3,0,0.6,0.1,0.8,0.3s0.3,0.5,0.3,0.8v15.4c0,0.3-0.1,0.6-0.3,0.8c-0.2,0.2-0.5,0.3-0.8,0.3
	c-0.3,0-0.6-0.1-0.8-0.3C30.9,93.3,30.8,93,30.8,92.7z M52.2,92.7c0,0.3-0.1,0.6-0.3,0.8c-0.2,0.2-0.5,0.3-0.8,0.3
	c-0.3,0-0.6-0.1-0.8-0.3c-0.2-0.2-0.3-0.5-0.3-0.8v-6.3c0-0.4-0.1-0.7-0.2-1s-0.3-0.6-0.6-0.8c-0.2-0.2-0.5-0.4-0.8-0.6
	c-0.3-0.1-0.7-0.2-1-0.2c-0.4,0-0.7,0.1-1,0.2s-0.6,0.3-0.8,0.6s-0.4,0.5-0.6,0.8s-0.2,0.7-0.2,1v6.3c0,0.3-0.1,0.6-0.3,0.8
	c-0.2,0.2-0.5,0.3-0.8,0.3c-0.3,0-0.6-0.1-0.8-0.3c-0.2-0.2-0.3-0.5-0.3-0.8v-6.3c0-0.4-0.1-0.7-0.2-1c-0.1-0.3-0.3-0.6-0.6-0.8
	S41,84.1,40.7,84s-0.7-0.2-1-0.2s-0.7,0.1-1,0.2s-0.6,0.3-0.8,0.6c-0.2,0.2-0.4,0.5-0.6,0.8c-0.1,0.3-0.2,0.7-0.2,1v6.3
	c0,0.3-0.1,0.6-0.3,0.8c-0.2,0.2-0.5,0.3-0.8,0.3c-0.3,0-0.6-0.1-0.8-0.3c-0.2-0.2-0.3-0.5-0.3-0.8V82.6c0-0.3,0.1-0.6,0.3-0.8
	c0.2-0.2,0.5-0.3,0.8-0.3c0.3,0,0.5,0.1,0.7,0.2s0.3,0.3,0.4,0.6c0.8-0.5,1.7-0.8,2.7-0.8c0.7,0,1.4,0.1,2.1,0.4
	c0.6,0.3,1.2,0.7,1.7,1.3c1-1.2,2.3-1.8,3.8-1.8c0.7,0,1.3,0.1,1.9,0.4c0.6,0.3,1.1,0.6,1.6,1.1c0.4,0.4,0.8,1,1.1,1.6
	c0.3,0.6,0.4,1.2,0.4,1.9V92.7z M71.7,92.7c0,0.3-0.1,0.6-0.3,0.8c-0.2,0.2-0.5,0.3-0.8,0.3c-0.3,0-0.6-0.1-0.8-0.3
	c-0.2-0.2-0.3-0.5-0.3-0.8v-6.3c0-0.4-0.1-0.7-0.2-1s-0.3-0.6-0.6-0.8c-0.2-0.2-0.5-0.4-0.8-0.6c-0.3-0.1-0.7-0.2-1-0.2
	c-0.4,0-0.7,0.1-1,0.2s-0.6,0.3-0.8,0.6s-0.4,0.5-0.6,0.8s-0.2,0.7-0.2,1v6.3c0,0.3-0.1,0.6-0.3,0.8c-0.2,0.2-0.5,0.3-0.8,0.3
	c-0.3,0-0.6-0.1-0.8-0.3c-0.2-0.2-0.3-0.5-0.3-0.8v-6.3c0-0.4-0.1-0.7-0.2-1c-0.1-0.3-0.3-0.6-0.6-0.8s-0.5-0.4-0.8-0.6
	s-0.7-0.2-1-0.2s-0.7,0.1-1,0.2s-0.6,0.3-0.8,0.6c-0.2,0.2-0.4,0.5-0.6,0.8c-0.1,0.3-0.2,0.7-0.2,1v6.3c0,0.3-0.1,0.6-0.3,0.8
	c-0.2,0.2-0.5,0.3-0.8,0.3c-0.3,0-0.6-0.1-0.8-0.3c-0.2-0.2-0.3-0.5-0.3-0.8V82.6c0-0.3,0.1-0.6,0.3-0.8c0.2-0.2,0.5-0.3,0.8-0.3
	c0.3,0,0.5,0.1,0.7,0.2s0.3,0.3,0.4,0.6c0.8-0.5,1.7-0.8,2.7-0.8c0.7,0,1.4,0.1,2.1,0.4c0.6,0.3,1.2,0.7,1.7,1.3
	c1-1.2,2.3-1.8,3.8-1.8c0.7,0,1.3,0.1,1.9,0.4c0.6,0.3,1.1,0.6,1.6,1.1c0.4,0.4,0.8,1,1.1,1.6c0.3,0.6,0.4,1.2,0.4,1.9V92.7z"/>
</svg>
